<svg version="1.1" xmlns="http://www.w3.org/2000/svg" xmlns:xlink="http://www.w3.org/1999/xlink" width="65.25346" height="34.43679" viewBox="0,0,65.25346,34.43679"><g transform="translate(-447.37327,-252.7816)"><g data-paper-data="{&quot;isPaintingLayer&quot;:true}" fill-rule="nonzero" stroke="none" stroke-linecap="butt" stroke-linejoin="miter" stroke-miterlimit="10" stroke-dasharray="" stroke-dashoffset="0" style="mix-blend-mode: normal"><g fill="#2a2a2a" stroke-width="0"><path d="M477.47519,287.2184v-34.43679c0,0 18.27995,0 28.95778,0c3.18133,0 6.19376,2.38716 6.19376,6.36029c0,17.77441 0,12.67165 0,22.19268c0,3.09844 -2.29101,5.88382 -6.34836,5.88382c-11.66127,0 -28.80318,0 -28.80318,0z"/><path d="M453.72163,287.2184c-4.05735,0 -6.34836,-2.78538 -6.34836,-5.88382c0,-9.52103 0,-4.41827 0,-22.19268c0,-3.97313 3.01243,-6.36029 6.19376,-6.36029c10.67783,0 28.95778,0 28.95778,0v34.43679c0,0 -17.14191,0 -28.80318,0z" data-paper-data="{&quot;index&quot;:null}"/></g><text transform="translate(456.90165,274.62027) scale(0.40046,0.40046)" font-size="40" xml:space="preserve" fill="#ffffff" fill-rule="nonzero" stroke="none" stroke-width="1" stroke-linecap="butt" stroke-linejoin="miter" stroke-miterlimit="10" stroke-dasharray="" stroke-dashoffset="0" font-family="Sans Serif" font-weight="normal" text-anchor="start" style="mix-blend-mode: normal"><tspan x="0" dy="0">Check</tspan></text></g></g></svg>