<svg version="1.1" xmlns="http://www.w3.org/2000/svg" xmlns:xlink="http://www.w3.org/1999/xlink" width="551.73671" height="325.57183" viewBox="0,0,551.73671,325.57183"><defs><linearGradient x1="154.55292" y1="109.26731" x2="154.55292" y2="432.28072" gradientUnits="userSpaceOnUse" id="color-1"><stop offset="0" stop-color="#2a2a2a"/><stop offset="1" stop-color="#2a2a2a" stop-opacity="0"/></linearGradient><linearGradient x1="165.90483" y1="263.03408" x2="382.1071" y2="263.03408" gradientUnits="userSpaceOnUse" id="color-2"><stop offset="0" stop-color="#2a2a2a"/><stop offset="1" stop-color="#2a2a2a" stop-opacity="0"/></linearGradient><linearGradient x1="165.90483" y1="317.21362" x2="382.1071" y2="317.21362" gradientUnits="userSpaceOnUse" id="color-3"><stop offset="0" stop-color="#2a2a2a"/><stop offset="1" stop-color="#2a2a2a" stop-opacity="0"/></linearGradient><linearGradient x1="165.90483" y1="375.00517" x2="382.1071" y2="375.00517" gradientUnits="userSpaceOnUse" id="color-4"><stop offset="0" stop-color="#2a2a2a"/><stop offset="1" stop-color="#2a2a2a" stop-opacity="0"/></linearGradient></defs><g transform="translate(154.50398,-107.9589)"><g data-paper-data="{&quot;isPaintingLayer&quot;:true}" fill-rule="nonzero" stroke-linejoin="miter" stroke-miterlimit="10" stroke-dasharray="" stroke-dashoffset="0" style="mix-blend-mode: normal"><path d="M-153.29186,429.30955v-321.22078c0,0 489.66877,0 528.1837,0c11.47507,0 22.34089,8.6105 22.34089,22.94156c0,64.11231 0,242.71392 0,277.05627c0,11.17606 -8.26367,21.22295 -22.89854,21.22295c-42.06221,0 -527.62606,0 -527.62606,0z" fill="#2a2a2a" stroke="none" stroke-width="0" stroke-linecap="butt"/><path d="M-154.50398,429.17968v-321.22078c0,0 483.35453,0 520.72859,0c11.13516,0 21.67913,8.6105 21.67913,22.94156c0,64.11231 0,242.71392 0,277.05628c0,11.17606 -8.01889,21.22294 -22.22025,21.22294c-40.81627,0 -520.18746,0 -520.18746,0z" fill="#191919" stroke="none" stroke-width="0" stroke-linecap="butt"/><text transform="translate(188.50433,150.3159) scale(0.5938,0.5938)" font-size="40" xml:space="preserve" fill="#ffffff" fill-rule="nonzero" stroke="none" stroke-width="1" stroke-linecap="butt" stroke-linejoin="miter" stroke-miterlimit="10" stroke-dasharray="" stroke-dashoffset="0" font-family="Sans Serif" font-weight="normal" text-anchor="start" style="mix-blend-mode: normal"><tspan x="0" dy="0">Hi, I am Jodie.</tspan></text><text transform="translate(171.72944,185.2977) scale(0.3694,0.3694)" font-size="40" xml:space="preserve" fill="#ffffff" fill-rule="nonzero" stroke="none" stroke-width="1" stroke-linecap="butt" stroke-linejoin="miter" stroke-miterlimit="10" stroke-dasharray="" stroke-dashoffset="0" font-family="Sans Serif" font-weight="normal" text-anchor="start" style="mix-blend-mode: normal"><tspan x="0" dy="0">  I am 15 and I make shit</tspan><tspan x="0" dy="46.150000000000006px">Most of the projects here are</tspan><tspan x="0" dy="46.150000000000006px">unfinished or abandoned,</tspan><tspan x="0" dy="46.150000000000006px">that's why you can't check</tspan><tspan x="0" dy="46.150000000000006px">them.</tspan><tspan x="0" dy="46.150000000000006px"> </tspan><tspan x="0" dy="46.150000000000006px"> Main developer and owner of</tspan><tspan x="0" dy="46.150000000000006px">WorldSprites.</tspan><tspan x="0" dy="46.150000000000006px"> </tspan><tspan x="0" dy="46.150000000000006px"> I am open to working with </tspan><tspan x="0" dy="46.150000000000006px">others if you are interested.</tspan><tspan x="0" dy="46.150000000000006px"> </tspan><tspan x="0" dy="46.150000000000006px"> </tspan><tspan x="0" dy="46.150000000000006px">Email: niccata24@gmail.com</tspan></text><path d="M154.55292,109.26731v323.01342" fill="none" stroke="url(#color-1)" stroke-width="2.5" stroke-linecap="round"/><path d="M165.90483,263.03408h216.20227" fill="none" stroke="url(#color-2)" stroke-width="2.5" stroke-linecap="round"/><path d="M165.90483,317.21362h216.20227" fill="none" stroke="url(#color-3)" stroke-width="2.5" stroke-linecap="round"/><path d="M382.1071,375.00517h-216.20227" fill="none" stroke="url(#color-4)" stroke-width="2.5" stroke-linecap="round"/><text transform="translate(75,141.5) scale(0.5,0.5)" font-size="40" xml:space="preserve" fill="#ffffff" fill-rule="nonzero" stroke="none" stroke-width="1" stroke-linecap="butt" stroke-linejoin="miter" stroke-miterlimit="10" stroke-dasharray="" stroke-dashoffset="0" font-family="Sans Serif" font-weight="normal" text-anchor="start" style="mix-blend-mode: normal"><tspan x="0" dy="0">Links:</tspan></text></g></g></svg>