<svg version="1.1" xmlns="http://www.w3.org/2000/svg" xmlns:xlink="http://www.w3.org/1999/xlink" width="24" height="23.40823" viewBox="0,0,24,23.40823"><g transform="translate(-468,-258.29588)"><g data-paper-data="{&quot;isPaintingLayer&quot;:true}" fill="#ffffff" fill-rule="nonzero" stroke="none" stroke-width="1" stroke-linecap="butt" stroke-linejoin="miter" stroke-miterlimit="10" stroke-dasharray="" stroke-dashoffset="0" style="mix-blend-mode: normal"><path d="M492,270.29588c0,5.3 -3.434,9.797 -8.199,11.386c-0.609,0.118 -0.801,-0.257 -0.801,-0.576v-3.293c0,-1.12 -0.393,-1.85 -0.823,-2.222c2.672,-0.297 5.479,-1.312 5.479,-5.921c0,-1.31 -0.465,-2.381 -1.235,-3.221c0.124,-0.302 0.535,-1.523 -0.118,-3.176c0,0 -1.006,-0.322 -3.297,1.23c-0.959,-0.266 -1.986,-0.399 -3.006,-0.404c-1.02,0.005 -2.046,0.138 -3.003,0.404c-2.293,-1.552 -3.301,-1.23 -3.301,-1.23c-0.652,1.652 -0.241,2.873 -0.117,3.176c-0.767,0.84 -1.236,1.91 -1.236,3.221c0,4.597 2.802,5.626 5.467,5.931c-0.344,0.299 -0.655,0.829 -0.762,1.604c-0.685,0.307 -2.422,0.837 -3.492,-0.997c0,0 -0.634,-1.153 -1.839,-1.237c0,0 -1.172,-0.016 -0.083,0.729c0,0 0.787,0.369 1.333,1.756c0,0 0.695,2.142 4.033,1.416v2.234c0,0.316 -0.194,0.688 -0.793,0.577c-4.769,-1.587 -8.207,-6.085 -8.207,-11.387c0,-6.627 5.374,-12 12,-12c6.627,0 12,5.373 12,12z"/></g></g></svg>