<svg version="1.1" xmlns="http://www.w3.org/2000/svg" xmlns:xlink="http://www.w3.org/1999/xlink" width="46.98423" height="44.96311" viewBox="0,0,46.98423,44.96311"><g transform="translate(-456.50789,-247.51843)"><g data-paper-data="{&quot;isPaintingLayer&quot;:true}" fill-rule="nonzero" stroke="none" stroke-linecap="butt" stroke-linejoin="miter" stroke-miterlimit="10" stroke-dasharray="" stroke-dashoffset="0" style="mix-blend-mode: normal"><g fill="#2a2a2a" stroke-width="0"><path d="M468.34059,292.48155v-44.96311c0,0 18.27995,0 28.95778,0c3.18133,0 6.19376,2.38716 6.19376,6.36029c0,17.77441 0,23.19797 0,32.719c0,3.09844 -2.29101,5.88382 -6.34836,5.88382c-11.66127,0 -28.80318,0 -28.80318,0z"/><path d="M462.85626,292.48155c-4.05735,0 -6.34836,-2.78538 -6.34836,-5.88382c0,-9.52103 0,-14.94459 0,-32.719c0,-3.97313 3.01243,-6.36029 6.19376,-6.36029c10.67783,0 28.95778,0 28.95778,0v44.96311c0,0 -17.14191,0 -28.80318,0z" data-paper-data="{&quot;index&quot;:null}"/></g><path d="M496.54968,270.40807c0,7.30944 -4.73597,13.51144 -11.30757,15.70289c-0.8399,0.16274 -1.10469,-0.35444 -1.10469,-0.79438v-4.54151c0,-1.54464 -0.542,-2.55141 -1.13503,-3.06445c3.68506,-0.4096 7.55631,-1.80943 7.55631,-8.16589c0,-1.80667 -0.6413,-3.28373 -1.70324,-4.44221c0.17101,-0.4165 0.73784,-2.10043 -0.16274,-4.38015c0,0 -1.38741,-0.44408 -4.54702,1.69634c-1.3226,-0.36685 -2.73897,-0.55028 -4.1457,-0.55717c-1.40672,0.0069 -2.82172,0.19032 -4.14156,0.55717c-3.16237,-2.14043 -4.55254,-1.69634 -4.55254,-1.69634c-0.8992,2.27834 -0.33237,3.96227 -0.16136,4.38015c-1.0578,1.15848 -1.70462,2.63416 -1.70462,4.44221c0,6.33991 3.86435,7.75904 7.53976,8.17968c-0.47442,0.41236 -0.90334,1.14331 -1.0509,2.21214c-0.94471,0.4234 -3.34028,1.15434 -4.81596,-1.375c0,0 -0.87437,-1.59015 -2.53624,-1.706c0,0 -1.61635,-0.02207 -0.11447,1.00539c0,0 1.08538,0.5089 1.83839,2.42177c0,0 0.9585,2.95412 5.56207,1.95286v3.081c0,0.43581 -0.26755,0.94885 -1.09366,0.79576c-6.57712,-2.1887 -11.3186,-8.39207 -11.3186,-15.70427c0,-9.13956 7.4115,-16.54968 16.54968,-16.54968c9.13956,0 16.54968,7.41012 16.54968,16.54968z" fill="#ffffff" stroke-width="1"/></g></g></svg>