<svg version="1.1" xmlns="http://www.w3.org/2000/svg" xmlns:xlink="http://www.w3.org/1999/xlink" width="46.98423" height="44.96311" viewBox="0,0,46.98423,44.96311"><g transform="translate(-456.50789,-247.51844)"><g data-paper-data="{&quot;isPaintingLayer&quot;:true}" fill-rule="nonzero" stroke="none" stroke-linecap="butt" stroke-linejoin="miter" stroke-miterlimit="10" stroke-dasharray="" stroke-dashoffset="0" style="mix-blend-mode: normal"><g fill="#2a2a2a" stroke-width="0"><path d="M468.34059,292.48155v-44.96311c0,0 18.27995,0 28.95778,0c3.18133,0 6.19376,2.38716 6.19376,6.36029c0,17.77441 0,23.19797 0,32.719c0,3.09844 -2.29101,5.88382 -6.34836,5.88382c-11.66127,0 -28.80318,0 -28.80318,0z"/><path d="M462.85626,292.48155c-4.05735,0 -6.34836,-2.78538 -6.34836,-5.88382c0,-9.52103 0,-14.94459 0,-32.719c0,-3.97313 3.01243,-6.36029 6.19376,-6.36029c10.67783,0 28.95778,0 28.95778,0v44.96311c0,0 -17.14191,0 -28.80318,0z" data-paper-data="{&quot;index&quot;:null}"/></g><path d="M490.03642,260.8611c3.25836,4.79267 4.86765,10.19898 4.26603,16.42281c-0.00228,0.02633 -0.01593,0.05039 -0.03755,0.0664c-2.46794,1.8124 -4.85854,2.91269 -7.21615,3.64199c-0.03755,0.01146 -0.07847,-0.00228 -0.10123,-0.03434c-0.54476,-0.75795 -1.03949,-1.55711 -1.47278,-2.39633c-0.02503,-0.04921 -0.00228,-0.10875 0.04889,-0.12821c0.78587,-0.29654 1.53309,-0.65148 2.25186,-1.07164c0.05685,-0.0332 0.06027,-0.11452 0.00797,-0.15345c-0.15239,-0.11334 -0.30365,-0.23241 -0.44812,-0.35148c-0.02727,-0.02174 -0.06368,-0.02633 -0.0944,-0.01146c-4.66632,2.15592 -9.77849,2.15592 -14.50053,0c-0.03072,-0.01374 -0.06713,-0.00914 -0.09327,0.0126c-0.14443,0.11907 -0.29573,0.237 -0.44698,0.35035c-0.0523,0.03893 -0.04775,0.12025 0.0091,0.15345c0.71877,0.41216 1.466,0.7751 2.25073,1.07278c0.05116,0.01947 0.07506,0.07786 0.05003,0.12708c-0.42419,0.84041 -0.91892,1.63956 -1.47392,2.39747c-0.0239,0.03093 -0.06368,0.04466 -0.10123,0.0332c-2.34623,-0.7293 -4.73685,-1.82959 -7.20479,-3.64199c-0.02047,-0.01601 -0.03526,-0.04121 -0.03753,-0.06754c-0.50269,-5.38343 0.52202,-10.83444 4.26261,-16.42281c0.00906,-0.01487 0.02272,-0.02633 0.03865,-0.0332c1.84015,-0.84496 3.81222,-1.46665 5.873,-1.82157c0.03755,-0.00573 0.07506,0.01145 0.0944,0.04465c0.25476,0.45109 0.5459,1.0293 0.74267,1.50213c2.17225,-0.33202 4.3786,-0.33202 6.59633,0c0.19673,-0.46255 0.47767,-1.05104 0.73129,-1.50213c0.01934,-0.03435 0.05685,-0.05152 0.0944,-0.04465c2.06192,0.35607 4.03399,0.97776 5.873,1.82157c0.01593,0.00687 0.02954,0.01833 0.03751,0.03434zM477.8082,271.09673c0.02276,-1.59145 -1.13731,-2.9081 -2.59302,-2.9081c-1.44438,0 -2.59307,1.30519 -2.59307,2.9081c0,1.60291 1.17141,2.9081 2.59307,2.9081c1.44433,0 2.59302,-1.30519 2.59302,-2.9081zM487.39565,271.09673c0.02272,-1.59145 -1.13731,-2.9081 -2.59307,-2.9081c-1.44438,0 -2.59302,1.30519 -2.59302,2.9081c0,1.60291 1.17141,2.9081 2.59302,2.9081c1.45575,0 2.59307,-1.30519 2.59307,-2.9081z" fill="#ffffff" stroke-width="1"/></g></g></svg>