<svg version="1.1" xmlns="http://www.w3.org/2000/svg" xmlns:xlink="http://www.w3.org/1999/xlink" width="46.98423" height="44.96311" viewBox="0,0,46.98423,44.96311"><g transform="translate(-456.50789,-247.51844)"><g data-paper-data="{&quot;isPaintingLayer&quot;:true}" fill-rule="nonzero" stroke="none" stroke-width="0" stroke-linecap="butt" stroke-linejoin="miter" stroke-miterlimit="10" stroke-dasharray="" stroke-dashoffset="0" style="mix-blend-mode: normal"><g fill="#2a2a2a"><path d="M468.34059,292.48155v-44.96311c0,0 18.27995,0 28.95778,0c3.18133,0 6.19376,2.38716 6.19376,6.36029c0,17.77441 0,23.19797 0,32.719c0,3.09844 -2.29101,5.88382 -6.34836,5.88382c-11.66127,0 -28.80318,0 -28.80318,0z"/><path d="M462.85626,292.48155c-4.05735,0 -6.34836,-2.78538 -6.34836,-5.88382c0,-9.52103 0,-14.94459 0,-32.719c0,-3.97313 3.01243,-6.36029 6.19376,-6.36029c10.67783,0 28.95778,0 28.95778,0v44.96311c0,0 -17.14191,0 -28.80318,0z" data-paper-data="{&quot;index&quot;:null}"/></g><path d="M475.42522,277.45137c0,-4.01521 0,-12.31496 0,-14.72362c0,-1.28107 1.16393,-1.83968 2.1698,-1.10738c1.75223,1.27568 7.41439,5.39794 9.99819,7.27904c0.80188,0.5838 0.77269,1.2638 0.07648,1.77066c-2.58269,1.88029 -8.74154,6.44127 -10.46493,7.69597c-0.85346,0.62135 -1.77954,0.43111 -1.77954,-0.91467z" fill="#ffffff"/></g></g></svg>