<svg version="1.1" xmlns="http://www.w3.org/2000/svg" xmlns:xlink="http://www.w3.org/1999/xlink" width="46.98423" height="44.96311" viewBox="0,0,46.98423,44.96311"><g transform="translate(-456.50789,-247.51844)"><g data-paper-data="{&quot;isPaintingLayer&quot;:true}" fill-rule="nonzero" stroke="none" stroke-linecap="butt" stroke-linejoin="miter" stroke-miterlimit="10" stroke-dasharray="" stroke-dashoffset="0" style="mix-blend-mode: normal"><g fill="#2a2a2a" stroke-width="0"><path d="M468.34059,292.48155v-44.96311c0,0 18.27995,0 28.95778,0c3.18133,0 6.19376,2.38716 6.19376,6.36029c0,17.77441 0,23.19797 0,32.719c0,3.09844 -2.29101,5.88382 -6.34836,5.88382c-11.66127,0 -28.80318,0 -28.80318,0z"/><path d="M462.85626,292.48155c-4.05735,0 -6.34836,-2.78538 -6.34836,-5.88382c0,-9.52103 0,-14.94459 0,-32.719c0,-3.97313 3.01243,-6.36029 6.19376,-6.36029c10.67783,0 28.95778,0 28.95778,0v44.96311c0,0 -17.14191,0 -28.80318,0z" data-paper-data="{&quot;index&quot;:null}"/></g><path d="M488.72065,265.52596c0.01336,0.19335 0.01336,0.38669 0.01336,0.58182c0,5.94564 -4.52628,12.80277 -12.80277,12.80277v-0.00356c-2.4449,0.00356 -4.83902,-0.69676 -6.89722,-2.01722c0.35551,0.04277 0.7128,0.06415 1.07098,0.06504c2.02613,0.00178 3.99435,-0.67805 5.58835,-1.9299c-1.92545,-0.03653 -3.61389,-1.29195 -4.20373,-3.12473c0.67449,0.13009 1.36947,0.10336 2.03148,-0.07752c-2.09919,-0.42412 -3.60944,-2.26848 -3.60944,-4.41045c0,-0.0196 0,-0.03831 0,-0.05702c0.62548,0.34838 1.32581,0.54173 2.04217,0.56311c-1.97713,-1.32135 -2.58657,-3.95158 -1.39263,-6.00801c2.28452,2.8111 5.65517,4.52004 9.27352,4.70091c-0.36264,-1.56281 0.13276,-3.20047 1.30175,-4.29907c1.81229,-1.70359 4.6626,-1.61627 6.36619,0.19513c1.00772,-0.19869 1.97356,-0.56846 2.85743,-1.09236c-0.33591,1.04158 -1.03891,1.92634 -1.97802,2.48856c0.89189,-0.10514 1.76329,-0.34393 2.5839,-0.70834c-0.6041,0.90526 -1.36501,1.69379 -2.24532,2.33085z" fill="#f0f0f0" stroke-width="1"/></g></g></svg>