<svg version="1.1" xmlns="http://www.w3.org/2000/svg" xmlns:xlink="http://www.w3.org/1999/xlink" width="463.21169" height="74.57417" viewBox="0,0,463.21169,74.57417"><defs><linearGradient x1="240.05422" y1="-6.03288" x2="240.05422" y2="82.35324" gradientUnits="userSpaceOnUse" id="color-1"><stop offset="0" stop-color="#4f4f4f"/><stop offset="1" stop-color="#282828"/></linearGradient></defs><g transform="translate(-8.44837,-7.77905)"><g data-paper-data="{&quot;isPaintingLayer&quot;:true}" fill-rule="nonzero" stroke="none" stroke-linecap="butt" stroke-linejoin="miter" stroke-miterlimit="10" stroke-dasharray="" stroke-dashoffset="0" style="mix-blend-mode: normal"><path d="M8.44837,74.3229c0,-10.56669 0,-48.65425 0,-61.93616c0,-2.89177 1.97207,-4.60768 4.9768,-4.60768c26.82849,0 400.49252,0 452.29318,0c3.86832,0 5.94171,2.36299 5.94171,6.21297c0,14.30397 0,49.13402 0,59.56494c0,4.40106 -3.33347,8.79626 -9.43207,8.79626c-62.72449,0 -417.95207,0 -447.36239,0c-3.82481,0 -6.41723,-3.96267 -6.41723,-8.03034z" fill="url(#color-1)" stroke-width="NaN"/><text transform="translate(242.64051,38.51976) scale(0.41662,0.41662)" font-size="40" xml:space="preserve" fill="#ffffff" fill-rule="nonzero" stroke="none" stroke-width="1" stroke-linecap="butt" stroke-linejoin="miter" stroke-miterlimit="10" stroke-dasharray="" stroke-dashoffset="0" font-family="Handwriting" font-weight="normal" text-anchor="start" style="mix-blend-mode: normal"><tspan x="0" dy="0"> All the games I have made over</tspan><tspan x="0" dy="46.15px">the years, in my free time</tspan></text></g></g></svg>